<svg width="262" height="61" viewBox="0 0 262 61" fill="none" xmlns="http://www.w3.org/2000/svg">
<path d="M53.9394 15.9806C51.1536 11.1682 46.2781 8.45148 41.0931 8.29624C38.3847 3.94956 33.5092 1 28.0147 1C22.4428 1 17.6448 3.94956 14.9362 8.29624C9.82863 8.45148 4.87584 11.2458 2.08989 15.9806C-0.696061 20.793 -0.541286 26.4592 1.85773 30.9611C-0.618673 35.6183 -0.696061 41.2847 2.08989 46.0194C4.87584 50.8318 9.75124 53.5486 14.9362 53.7037C17.6448 58.0505 22.5202 61 28.0147 61C33.5092 61 38.3847 58.0505 41.0931 53.7037C46.2008 53.5486 51.1536 50.7542 53.9394 46.0194C56.7255 41.2069 56.5706 35.5408 54.1716 31.0389C56.5706 26.4592 56.6481 20.793 53.9394 15.9806ZM42.0992 10.1591C46.3555 10.6248 50.2249 13.1087 52.3917 16.912C54.636 20.793 54.7133 25.3726 53.0882 29.176C51.85 27.4683 50.2249 25.9934 48.3676 24.9068C46.3555 23.7426 44.266 23.1216 42.0992 22.8887C43.028 20.9482 43.4921 18.7749 43.4921 16.4463C43.4148 14.273 42.9504 12.0996 42.0992 10.1591ZM42.0992 24.7517C43.9565 24.9846 45.7364 25.5279 47.3615 26.4592C49.2964 27.6236 50.9214 29.176 52.0822 30.9611C50.9214 32.7464 49.3737 34.3764 47.3615 35.5408C45.7364 36.4721 43.9565 37.0932 42.0992 37.2483C42.9504 35.3079 43.4148 33.2122 43.4148 30.9611C43.4148 28.7103 42.9504 26.6921 42.0992 24.7517ZM28.0147 2.78525C32.5031 2.78525 36.4498 4.9586 38.9264 8.29624C36.8369 8.5291 34.7474 9.15006 32.8126 10.3143C30.8007 11.4787 29.1754 12.9534 27.9374 14.7387C26.6991 12.9534 25.074 11.4787 23.0619 10.3143C21.1272 9.22768 19.0378 8.5291 16.9483 8.29624C19.5021 5.03622 23.5262 2.78525 28.0147 2.78525ZM30.5685 35.5408C32.9675 37.559 35.8308 38.8007 38.9264 39.1111C36.7596 42.0609 33.3543 44.1566 29.4851 44.5446C30.7232 41.7504 31.1875 38.6456 30.5685 35.5408ZM30.5685 26.4592C31.1102 23.3545 30.7232 20.2497 29.4851 17.4554C33.3543 17.9211 36.682 19.9392 38.9264 22.8887C35.9082 23.2768 32.9675 24.4411 30.5685 26.4592ZM26.4669 44.6221C22.5976 44.1566 19.2699 42.1384 17.0257 39.1889C20.0438 38.8785 22.9845 37.6365 25.3835 35.6183C24.8418 38.6456 25.2287 41.7504 26.4669 44.6221ZM25.3835 26.4592C22.9845 24.4411 20.1212 23.1992 17.0257 22.8887C19.1925 19.9392 22.5976 17.8435 26.4669 17.4554C25.2287 20.2497 24.8418 23.4321 25.3835 26.4592ZM15.9422 10.0815C18.1091 10.1591 20.2759 10.7801 22.2106 11.8668C23.8358 12.7982 25.2287 14.1177 26.3896 15.5925C21.9011 16.0582 18.0317 18.4644 15.5553 21.8797C14.8588 20.1721 14.3945 18.3868 14.3945 16.4463C14.3945 14.1954 14.9362 12.022 15.9422 10.0815ZM15.5553 25.5279C17.3352 28.0116 19.889 29.952 22.8297 30.9611C19.889 32.0477 17.4126 33.9108 15.5553 36.3945C14.8588 34.687 14.3945 32.9017 14.3945 30.9611C14.3945 29.0207 14.7814 27.2354 15.5553 25.5279ZM13.9302 51.8409C9.67385 51.3751 5.80448 48.8914 3.63763 45.0879C1.3934 41.2069 1.31601 36.6274 2.94116 32.824C4.17935 34.5317 5.80448 36.0066 7.66178 37.0932C9.67385 38.2574 11.7633 38.8785 13.9302 39.1111C13.0015 41.0518 12.5372 43.2251 12.5372 45.5537C12.5372 47.8047 13.0789 49.9005 13.9302 51.8409ZM13.9302 37.3261C12.0729 37.0932 10.293 36.5499 8.66783 35.6183C6.65575 34.4541 5.10801 32.9017 3.94718 31.0389C5.10801 29.2536 6.65575 27.6236 8.66783 26.4592C10.293 25.5279 12.0729 24.9068 13.9302 24.7517C13.0789 26.6921 12.6146 28.7878 12.6146 31.0389C12.6146 33.2897 13.0789 35.3855 13.9302 37.3261ZM7.73917 24.9068C5.80448 25.9934 4.17935 27.4683 3.01855 29.176C1.3934 25.3726 1.47079 20.793 3.71502 16.912C5.88187 13.1863 9.75124 10.7025 14.0076 10.1591C13.1563 12.0996 12.692 14.1954 12.692 16.4463C12.692 18.7749 13.2337 20.9482 14.0849 22.8887C11.8407 23.1216 9.67385 23.7426 7.73917 24.9068ZM14.3945 45.5537C14.3945 43.6133 14.7814 41.7504 15.5553 40.1202C18.0317 43.5355 21.9785 45.9419 26.3896 46.4074C25.3062 47.8823 23.9131 49.1243 22.2106 50.1334C20.2759 51.22 18.1091 51.8409 15.9422 51.9184C14.9362 50.0556 14.3945 47.8823 14.3945 45.5537ZM28.0147 59.2147C23.5262 59.2147 19.5795 57.0414 17.1031 53.7037C19.1925 53.4708 21.282 52.85 23.2167 51.6855C25.2287 50.5213 26.854 49.0465 28.092 47.2614C29.3303 49.0465 30.9553 50.5213 32.9675 51.6855C34.9021 52.7724 36.9915 53.4708 39.081 53.7037C36.4498 57.0414 32.5031 59.2147 28.0147 59.2147ZM40.0098 51.9184C37.843 51.8409 35.676 51.22 33.7414 50.1334C32.1163 49.2018 30.7232 47.8823 29.5624 46.4074C34.0509 45.9419 37.9203 43.5355 40.3966 40.1202C41.0931 41.828 41.5575 43.6133 41.5575 45.5537C41.6348 47.8823 41.0158 50.0556 40.0098 51.9184ZM40.4741 36.4721C38.6942 33.9884 36.1403 32.048 33.1997 31.0389C36.1403 29.952 38.6169 28.0892 40.4741 25.6055C41.1705 27.313 41.6348 29.0983 41.6348 31.0389C41.6348 32.9793 41.1705 34.8421 40.4741 36.4721ZM40.4741 21.9573C37.9976 18.542 34.0509 16.1358 29.6398 15.6701C30.7232 14.1954 32.1163 12.9534 33.8187 11.9444C35.7535 10.8577 37.9203 10.2368 40.0871 10.1591C41.0931 12.022 41.6348 14.1954 41.6348 16.5239C41.6348 18.3868 41.1705 20.2497 40.4741 21.9573ZM52.3143 45.1657C50.1476 48.8914 46.2781 51.3751 42.0219 51.9184C42.8731 49.978 43.3375 47.8823 43.3375 45.6312C43.3375 43.3026 42.7958 41.1293 41.9443 39.1889C44.1114 38.956 46.2008 38.3349 48.2127 37.1708C50.1476 36.0841 51.7726 34.6092 52.9334 32.9017C53.1655 33.5226 53.3977 34.1435 53.6299 34.8421C54.636 38.3349 54.1716 41.9831 52.3143 45.1657Z" fill="#DF615F"/>
<path d="M104.582 30.8182C104.582 34.7008 103.872 38.0388 102.452 40.8324C101.031 43.6141 99.084 45.7566 96.6101 47.2599C94.148 48.7514 91.3485 49.4972 88.2116 49.4972C85.063 49.4972 82.2517 48.7514 79.7777 47.2599C77.3156 45.7566 75.3743 43.6082 73.9538 40.8146C72.5334 38.0211 71.8232 34.6889 71.8232 30.8182C71.8232 26.9356 72.5334 23.6035 73.9538 20.8217C75.3743 18.0282 77.3156 15.8857 79.7777 14.3942C82.2517 12.8909 85.063 12.1392 88.2116 12.1392C91.3485 12.1392 94.148 12.8909 96.6101 14.3942C99.084 15.8857 101.031 18.0282 102.452 20.8217C103.872 23.6035 104.582 26.9356 104.582 30.8182ZM99.1491 30.8182C99.1491 27.8589 98.6697 25.3672 97.7109 23.343C96.764 21.3071 95.4619 19.7682 93.8047 18.7266C92.1593 17.6731 90.295 17.1463 88.2116 17.1463C86.1165 17.1463 84.2462 17.6731 82.6009 18.7266C80.9555 19.7682 79.6534 21.3071 78.6946 23.343C77.7476 25.3672 77.2741 27.8589 77.2741 30.8182C77.2741 33.7775 77.7476 36.2751 78.6946 38.3111C79.6534 40.3352 80.9555 41.8741 82.6009 42.9276C84.2462 43.9692 86.1165 44.4901 88.2116 44.4901C90.295 44.4901 92.1593 43.9692 93.8047 42.9276C95.4619 41.8741 96.764 40.3352 97.7109 38.3111C98.6697 36.2751 99.1491 33.7775 99.1491 30.8182ZM134.328 21.7273L124.438 49H118.756L108.848 21.7273H114.548L121.455 42.7145H121.739L128.628 21.7273H134.328ZM146.472 49.6037C144.744 49.6037 143.182 49.2841 141.785 48.6449C140.388 47.9938 139.281 47.0528 138.465 45.8217C137.66 44.5907 137.257 43.0814 137.257 41.294C137.257 39.7552 137.553 38.4886 138.145 37.4943C138.737 36.5 139.536 35.7128 140.542 35.1328C141.548 34.5528 142.673 34.1148 143.916 33.8189C145.159 33.523 146.425 33.2981 147.715 33.1442C149.349 32.9548 150.675 32.8009 151.693 32.6825C152.711 32.5523 153.45 32.3452 153.912 32.0611C154.374 31.777 154.605 31.3153 154.605 30.6761V30.5518C154.605 29.0012 154.167 27.7997 153.291 26.9474C152.427 26.0952 151.136 25.669 149.42 25.669C147.633 25.669 146.224 26.0656 145.194 26.8587C144.176 27.6399 143.472 28.5099 143.081 29.4688L138.092 28.3324C138.684 26.6752 139.548 25.3376 140.684 24.3196C141.832 23.2898 143.152 22.544 144.644 22.0824C146.135 21.6089 147.704 21.3722 149.349 21.3722C150.438 21.3722 151.592 21.5024 152.811 21.7628C154.042 22.0114 155.191 22.473 156.256 23.1477C157.333 23.8224 158.215 24.7872 158.901 26.0419C159.588 27.2848 159.931 28.9006 159.931 30.8892V49H154.747V45.2713H154.534C154.19 45.9579 153.675 46.6326 152.989 47.2955C152.302 47.9583 151.42 48.5088 150.343 48.9467C149.266 49.3847 147.976 49.6037 146.472 49.6037ZM147.627 45.3423C149.094 45.3423 150.349 45.0523 151.391 44.4723C152.444 43.8923 153.243 43.1347 153.788 42.1996C154.344 41.2526 154.622 40.2405 154.622 39.1634V35.6477C154.433 35.8371 154.066 36.0147 153.521 36.1804C152.989 36.3343 152.379 36.4704 151.693 36.5888C151.006 36.6953 150.337 36.7959 149.686 36.8906C149.035 36.9735 148.491 37.0445 148.053 37.1037C147.023 37.2339 146.082 37.4529 145.23 37.7607C144.389 38.0684 143.714 38.5123 143.205 39.0923C142.708 39.6605 142.46 40.4181 142.46 41.3651C142.46 42.679 142.945 43.6733 143.916 44.348C144.886 45.0109 146.123 45.3423 147.627 45.3423ZM172.01 49L161.924 12.6364H167.695L174.779 40.7969H175.117L182.485 12.6364H188.203L195.571 40.8146H195.909L202.975 12.6364H208.764L198.661 49H193.139L185.486 21.7628H185.202L177.549 49H172.01ZM222.409 49.5504C219.722 49.5504 217.408 48.9763 215.467 47.8281C213.537 46.6681 212.046 45.0405 210.992 42.9453C209.951 40.8383 209.43 38.3703 209.43 35.5412C209.43 32.7476 209.951 30.2855 210.992 28.1548C212.046 26.0241 213.513 24.361 215.396 23.1655C217.29 21.9699 219.503 21.3722 222.036 21.3722C223.575 21.3722 225.067 21.6267 226.511 22.1357C227.955 22.6446 229.251 23.4437 230.399 24.5327C231.547 25.6217 232.453 27.0362 233.116 28.7763C233.779 30.5045 234.11 32.6056 234.11 35.0795V36.9616H212.43V32.9844H228.908C228.908 31.5876 228.624 30.3506 228.055 29.2734C227.487 28.1844 226.688 27.3262 225.658 26.6989C224.64 26.0715 223.445 25.7578 222.072 25.7578C220.58 25.7578 219.278 26.1248 218.165 26.8587C217.065 27.5807 216.212 28.5277 215.609 29.6996C215.017 30.8596 214.721 32.1203 214.721 33.4815V36.5888C214.721 38.4117 215.04 39.9624 215.68 41.2408C216.331 42.5192 217.236 43.4957 218.396 44.1705C219.556 44.8333 220.912 45.1648 222.462 45.1648C223.469 45.1648 224.386 45.0227 225.214 44.7386C226.043 44.4427 226.759 44.0047 227.363 43.4247C227.967 42.8447 228.428 42.1286 228.748 41.2763L233.773 42.1818C233.37 43.6615 232.648 44.9576 231.607 46.0703C230.577 47.1712 229.281 48.0294 227.718 48.6449C226.167 49.2486 224.398 49.5504 222.409 49.5504ZM245.309 12.6364V49H240.001V12.6364H245.309ZM257.761 12.6364V49H252.452V12.6364H257.761Z" fill="#DF615F"/>
</svg>
